<svg width="33" height="33" viewBox="0 0 33 33" fill="none" xmlns="http://www.w3.org/2000/svg">
<path d="M16.5279 0.901672C25.3679 0.901672 32.5279 8.06167 32.5279 16.9017C32.527 20.2541 31.4749 23.5218 29.5196 26.2449C27.5642 28.968 24.8042 31.0094 21.6279 32.0817C20.8279 32.2417 20.5279 31.7417 20.5279 31.3217C20.5279 30.7817 20.5479 29.0617 20.5479 26.9217C20.5479 25.4217 20.0479 24.4617 19.4679 23.9617C23.0279 23.5617 26.7679 22.2017 26.7679 16.0617C26.7679 14.3017 26.1479 12.8817 25.1279 11.7617C25.2879 11.3617 25.8479 9.72167 24.9679 7.52167C24.9679 7.52167 23.6279 7.08167 20.5679 9.16167C19.2879 8.80167 17.9279 8.62167 16.5679 8.62167C15.2079 8.62167 13.8479 8.80167 12.5679 9.16167C9.50789 7.10167 8.1679 7.52167 8.1679 7.52167C7.2879 9.72167 7.8479 11.3617 8.0079 11.7617C6.9879 12.8817 6.3679 14.3217 6.3679 16.0617C6.3679 22.1817 10.0879 23.5617 13.6479 23.9617C13.1879 24.3617 12.7679 25.0617 12.6279 26.1017C11.7079 26.5217 9.4079 27.2017 7.9679 24.7817C7.6679 24.3017 6.7679 23.1217 5.5079 23.1417C4.1679 23.1617 4.9679 23.9017 5.5279 24.2017C6.2079 24.5817 6.9879 26.0017 7.1679 26.4617C7.4879 27.3617 8.5279 29.0817 12.5479 28.3417C12.5479 29.6817 12.5679 30.9417 12.5679 31.3217C12.5679 31.7417 12.2679 32.2217 11.4679 32.0817C8.28117 31.0209 5.50936 28.9837 3.54567 26.259C1.58199 23.5342 0.526132 20.2603 0.527895 16.9017C0.527895 8.06167 7.68789 0.901672 16.5279 0.901672Z" fill="white"/>
</svg>
