<svg width="15" height="15" viewBox="0 0 15 15" fill="none" xmlns="http://www.w3.org/2000/svg">
<path id="Vector" d="M10.368 11.6417C9.16232 12.5775 7.64538 13.0187 6.12591 12.8755C4.60644 12.7323 3.19866 12.0154 2.18912 10.8708C1.17959 9.72616 0.644186 8.23985 0.691901 6.71439C0.739615 5.18893 1.36686 3.73898 2.44596 2.6597C3.52524 1.5806 4.97518 0.95336 6.50064 0.905646C8.0261 0.857931 9.51241 1.39333 10.657 2.40287C11.8016 3.4124 12.5185 4.82018 12.6617 6.33965C12.805 7.85912 12.3638 9.37607 11.428 10.5817L14.468 13.6217C14.5667 13.7134 14.6389 13.83 14.6769 13.9592C14.7149 14.0885 14.7173 14.2256 14.684 14.3561C14.6506 14.4866 14.5826 14.6057 14.4872 14.7009C14.3918 14.796 14.2726 14.8637 14.142 14.8967C14.0116 14.9301 13.8746 14.9278 13.7454 14.89C13.6163 14.8521 13.4997 14.7802 13.408 14.6817L10.368 11.6417ZM11.188 6.9017C11.1968 6.30531 11.0871 5.7131 10.865 5.15952C10.6429 4.60594 10.313 4.10205 9.89436 3.67716C9.47575 3.25226 8.97683 2.91485 8.42663 2.68454C7.87642 2.45423 7.28592 2.33563 6.68946 2.33563C6.09299 2.33563 5.50249 2.45423 4.95228 2.68454C4.40208 2.91485 3.90316 3.25226 3.48456 3.67716C3.06595 4.10205 2.73601 4.60594 2.51393 5.15952C2.29185 5.7131 2.18206 6.30531 2.19096 6.9017C2.20857 8.08316 2.69027 9.21027 3.53198 10.0395C4.3737 10.8688 5.50786 11.3336 6.68946 11.3336C7.87105 11.3336 9.00521 10.8688 9.84693 10.0395C10.6886 9.21027 11.1703 8.08316 11.188 6.9017Z" fill="#656D76"/>
</svg>
