<svg width="46" height="54" viewBox="0 0 46 54" fill="none" xmlns="http://www.w3.org/2000/svg">
<path d="M30.4994 42V43.875C30.4994 45.8641 29.7092 47.7718 28.3027 49.1783C26.8961 50.5848 24.9885 51.375 22.9994 51.375C21.0102 51.375 19.1026 50.5848 17.6961 49.1783C16.2895 47.7718 15.4994 45.8641 15.4994 43.875V42M43.1181 38.1832C40.1087 34.5 37.9841 32.625 37.9841 22.4707C37.9841 13.1719 33.2357 9.85898 29.3275 8.25C28.8083 8.03672 28.3197 7.54687 28.1615 7.01367C27.4759 4.68047 25.554 2.625 22.9994 2.625C20.4447 2.625 18.5216 4.68164 17.8431 7.01602C17.6849 7.55508 17.1962 8.03672 16.6771 8.25C12.7642 9.86133 8.02045 13.1625 8.02045 22.4707C8.01459 32.625 5.88998 34.5 2.88061 38.1832C1.63373 39.709 2.72592 42 4.90678 42H41.1037C43.2728 42 44.358 39.702 43.1181 38.1832Z" stroke="#F8F8F8" stroke-width="3.75" stroke-linecap="round" stroke-linejoin="round"/>
</svg>
